%TF.GenerationSoftware,KiCad,Pcbnew,(5.1.6-0-10_14)*%
%TF.CreationDate,2021-12-31T12:36:28+01:00*%
%TF.ProjectId,LF_Antenna_v3,4c465f41-6e74-4656-9e6e-615f76332e6b,rev?*%
%TF.SameCoordinates,Original*%
%TF.FileFunction,Profile,NP*%
%FSLAX46Y46*%
G04 Gerber Fmt 4.6, Leading zero omitted, Abs format (unit mm)*
G04 Created by KiCad (PCBNEW (5.1.6-0-10_14)) date 2021-12-31 12:36:28*
%MOMM*%
%LPD*%
G01*
G04 APERTURE LIST*
%TA.AperFunction,Profile*%
%ADD10C,0.200000*%
%TD*%
G04 APERTURE END LIST*
D10*
X106985801Y-174954200D02*
X106985801Y-159687599D01*
X106485801Y-42829187D02*
X106485801Y-39194723D01*
X109485801Y-45829187D02*
G75*
G02*
X106485801Y-42829187I0J3000000D01*
G01*
X113485800Y-45829187D02*
X109485801Y-45829187D01*
X107985801Y-175954200D02*
G75*
G02*
X106985801Y-174954200I0J1000000D01*
G01*
X116485800Y-42829187D02*
G75*
G02*
X113485800Y-45829187I-3000000J0D01*
G01*
X116485800Y-39194723D02*
X116485800Y-42829187D01*
X116485800Y-39194723D02*
G75*
G02*
X119918232Y-36226053I3000000J0D01*
G01*
X119918233Y-36226053D02*
G75*
G02*
X119918232Y-152004187I-8432433J-57889067D01*
G01*
X119918232Y-152004187D02*
G75*
G02*
X116485800Y-149035517I-432432J2968670D01*
G01*
X116485800Y-145401053D02*
X116485800Y-149035517D01*
X115985800Y-174954200D02*
G75*
G02*
X114985800Y-175954200I-1000000J0D01*
G01*
X115985800Y-159687599D02*
X115985800Y-174954200D01*
X115985800Y-159687599D02*
G75*
G02*
X118644891Y-156707032I3000000J0D01*
G01*
X113035799Y-147401053D02*
G75*
G03*
X113035799Y-147401053I-1549999J0D01*
G01*
X113035799Y-40829187D02*
G75*
G03*
X113035799Y-40829187I-1549999J0D01*
G01*
X113485800Y-142401053D02*
G75*
G02*
X116485800Y-145401053I0J-3000000D01*
G01*
X109485801Y-142401053D02*
X113485800Y-142401053D01*
X106485801Y-145401053D02*
G75*
G02*
X109485801Y-142401053I3000000J0D01*
G01*
X106485801Y-149035517D02*
X106485801Y-145401053D01*
X106485801Y-149035518D02*
G75*
G02*
X103053368Y-152004187I-3000000J1D01*
G01*
X103053367Y-152004187D02*
G75*
G02*
X103053368Y-36226053I8432433J57889067D01*
G01*
X103053369Y-36226053D02*
G75*
G02*
X106485801Y-39194723I432432J-2968670D01*
G01*
X104326709Y-156707032D02*
G75*
G02*
X118644891Y-156707032I7159091J62591912D01*
G01*
X104326710Y-156707032D02*
G75*
G02*
X106985801Y-159687599I-340909J-2980567D01*
G01*
X114985800Y-175954200D02*
X107985801Y-175954200D01*
M02*
