%TF.GenerationSoftware,KiCad,Pcbnew,(5.1.6-0-10_14)*%
%TF.CreationDate,2021-12-31T12:36:28+01:00*%
%TF.ProjectId,LF_Antenna_v3,4c465f41-6e74-4656-9e6e-615f76332e6b,rev?*%
%TF.SameCoordinates,Original*%
%TF.FileFunction,Legend,Top*%
%TF.FilePolarity,Positive*%
%FSLAX46Y46*%
G04 Gerber Fmt 4.6, Leading zero omitted, Abs format (unit mm)*
G04 Created by KiCad (PCBNEW (5.1.6-0-10_14)) date 2021-12-31 12:36:28*
%MOMM*%
%LPD*%
G01*
G04 APERTURE LIST*
%ADD10C,0.250000*%
%ADD11C,0.150000*%
%ADD12C,0.300000*%
%ADD13C,0.120000*%
G04 APERTURE END LIST*
D10*
X107947619Y-44552380D02*
X107852380Y-44504761D01*
X107804761Y-44457142D01*
X107757142Y-44361904D01*
X107757142Y-44076190D01*
X107804761Y-43980952D01*
X107852380Y-43933333D01*
X107947619Y-43885714D01*
X108090476Y-43885714D01*
X108185714Y-43933333D01*
X108233333Y-43980952D01*
X108280952Y-44076190D01*
X108280952Y-44361904D01*
X108233333Y-44457142D01*
X108185714Y-44504761D01*
X108090476Y-44552380D01*
X107947619Y-44552380D01*
X109138095Y-44504761D02*
X109042857Y-44552380D01*
X108852380Y-44552380D01*
X108757142Y-44504761D01*
X108709523Y-44457142D01*
X108661904Y-44361904D01*
X108661904Y-44076190D01*
X108709523Y-43980952D01*
X108757142Y-43933333D01*
X108852380Y-43885714D01*
X109042857Y-43885714D01*
X109138095Y-43933333D01*
X109423809Y-43885714D02*
X109804761Y-43885714D01*
X109566666Y-43552380D02*
X109566666Y-44409523D01*
X109614285Y-44504761D01*
X109709523Y-44552380D01*
X109804761Y-44552380D01*
X110566666Y-44552380D02*
X110566666Y-44028571D01*
X110519047Y-43933333D01*
X110423809Y-43885714D01*
X110233333Y-43885714D01*
X110138095Y-43933333D01*
X110566666Y-44504761D02*
X110471428Y-44552380D01*
X110233333Y-44552380D01*
X110138095Y-44504761D01*
X110090476Y-44409523D01*
X110090476Y-44314285D01*
X110138095Y-44219047D01*
X110233333Y-44171428D01*
X110471428Y-44171428D01*
X110566666Y-44123809D01*
X111042857Y-43885714D02*
X111042857Y-44552380D01*
X111042857Y-43980952D02*
X111090476Y-43933333D01*
X111185714Y-43885714D01*
X111328571Y-43885714D01*
X111423809Y-43933333D01*
X111471428Y-44028571D01*
X111471428Y-44552380D01*
X111947619Y-44552380D02*
X111947619Y-43885714D01*
X111947619Y-43552380D02*
X111900000Y-43600000D01*
X111947619Y-43647619D01*
X111995238Y-43600000D01*
X111947619Y-43552380D01*
X111947619Y-43647619D01*
X112376190Y-44504761D02*
X112471428Y-44552380D01*
X112661904Y-44552380D01*
X112757142Y-44504761D01*
X112804761Y-44409523D01*
X112804761Y-44361904D01*
X112757142Y-44266666D01*
X112661904Y-44219047D01*
X112519047Y-44219047D01*
X112423809Y-44171428D01*
X112376190Y-44076190D01*
X112376190Y-44028571D01*
X112423809Y-43933333D01*
X112519047Y-43885714D01*
X112661904Y-43885714D01*
X112757142Y-43933333D01*
X113233333Y-44457142D02*
X113280952Y-44504761D01*
X113233333Y-44552380D01*
X113185714Y-44504761D01*
X113233333Y-44457142D01*
X113233333Y-44552380D01*
X114138095Y-44504761D02*
X114042857Y-44552380D01*
X113852380Y-44552380D01*
X113757142Y-44504761D01*
X113709523Y-44457142D01*
X113661904Y-44361904D01*
X113661904Y-44076190D01*
X113709523Y-43980952D01*
X113757142Y-43933333D01*
X113852380Y-43885714D01*
X114042857Y-43885714D01*
X114138095Y-43933333D01*
X114566666Y-44552380D02*
X114566666Y-43552380D01*
X114995238Y-44552380D02*
X114995238Y-44028571D01*
X114947619Y-43933333D01*
X114852380Y-43885714D01*
X114709523Y-43885714D01*
X114614285Y-43933333D01*
X114566666Y-43980952D01*
X109428571Y-151177380D02*
X108952380Y-151177380D01*
X108952380Y-150177380D01*
X110095238Y-150653571D02*
X109761904Y-150653571D01*
X109761904Y-151177380D02*
X109761904Y-150177380D01*
X110238095Y-150177380D01*
X110619047Y-150796428D02*
X111380952Y-150796428D01*
X111809523Y-150891666D02*
X112285714Y-150891666D01*
X111714285Y-151177380D02*
X112047619Y-150177380D01*
X112380952Y-151177380D01*
X112714285Y-151177380D02*
X112714285Y-150177380D01*
X113285714Y-151177380D01*
X113285714Y-150177380D01*
X113619047Y-150177380D02*
X114190476Y-150177380D01*
X113904761Y-151177380D02*
X113904761Y-150177380D01*
X107833333Y-152260714D02*
X108071428Y-152927380D01*
X108309523Y-152260714D01*
X108880952Y-151927380D02*
X108976190Y-151927380D01*
X109071428Y-151975000D01*
X109119047Y-152022619D01*
X109166666Y-152117857D01*
X109214285Y-152308333D01*
X109214285Y-152546428D01*
X109166666Y-152736904D01*
X109119047Y-152832142D01*
X109071428Y-152879761D01*
X108976190Y-152927380D01*
X108880952Y-152927380D01*
X108785714Y-152879761D01*
X108738095Y-152832142D01*
X108690476Y-152736904D01*
X108642857Y-152546428D01*
X108642857Y-152308333D01*
X108690476Y-152117857D01*
X108738095Y-152022619D01*
X108785714Y-151975000D01*
X108880952Y-151927380D01*
X109642857Y-152832142D02*
X109690476Y-152879761D01*
X109642857Y-152927380D01*
X109595238Y-152879761D01*
X109642857Y-152832142D01*
X109642857Y-152927380D01*
X110071428Y-152022619D02*
X110119047Y-151975000D01*
X110214285Y-151927380D01*
X110452380Y-151927380D01*
X110547619Y-151975000D01*
X110595238Y-152022619D01*
X110642857Y-152117857D01*
X110642857Y-152213095D01*
X110595238Y-152355952D01*
X110023809Y-152927380D01*
X110642857Y-152927380D01*
X112547619Y-151879761D02*
X111690476Y-153165476D01*
X113595238Y-152879761D02*
X113738095Y-152927380D01*
X113976190Y-152927380D01*
X114071428Y-152879761D01*
X114119047Y-152832142D01*
X114166666Y-152736904D01*
X114166666Y-152641666D01*
X114119047Y-152546428D01*
X114071428Y-152498809D01*
X113976190Y-152451190D01*
X113785714Y-152403571D01*
X113690476Y-152355952D01*
X113642857Y-152308333D01*
X113595238Y-152213095D01*
X113595238Y-152117857D01*
X113642857Y-152022619D01*
X113690476Y-151975000D01*
X113785714Y-151927380D01*
X114023809Y-151927380D01*
X114166666Y-151975000D01*
X114547619Y-152879761D02*
X114690476Y-152927380D01*
X114928571Y-152927380D01*
X115023809Y-152879761D01*
X115071428Y-152832142D01*
X115119047Y-152736904D01*
X115119047Y-152641666D01*
X115071428Y-152546428D01*
X115023809Y-152498809D01*
X114928571Y-152451190D01*
X114738095Y-152403571D01*
X114642857Y-152355952D01*
X114595238Y-152308333D01*
X114547619Y-152213095D01*
X114547619Y-152117857D01*
X114595238Y-152022619D01*
X114642857Y-151975000D01*
X114738095Y-151927380D01*
X114976190Y-151927380D01*
X115119047Y-151975000D01*
D11*
X52501800Y-97764600D02*
X52501800Y-91059000D01*
X52400200Y-91059000D02*
X48971200Y-91059000D01*
X48971200Y-91059000D02*
X48971200Y-97764600D01*
X48971200Y-97764600D02*
X52501800Y-97764600D01*
D10*
X51249200Y-93216552D02*
X51296819Y-93121314D01*
X51296819Y-92978457D01*
X51249200Y-92835600D01*
X51153961Y-92740361D01*
X51058723Y-92692742D01*
X50868247Y-92645123D01*
X50725390Y-92645123D01*
X50534914Y-92692742D01*
X50439676Y-92740361D01*
X50344438Y-92835600D01*
X50296819Y-92978457D01*
X50296819Y-93073695D01*
X50344438Y-93216552D01*
X50392057Y-93264171D01*
X50725390Y-93264171D01*
X50725390Y-93073695D01*
X50296819Y-94168933D02*
X50296819Y-93692742D01*
X51296819Y-93692742D01*
X51296819Y-94502266D02*
X50487295Y-94502266D01*
X50392057Y-94549885D01*
X50344438Y-94597504D01*
X50296819Y-94692742D01*
X50296819Y-94883219D01*
X50344438Y-94978457D01*
X50392057Y-95026076D01*
X50487295Y-95073695D01*
X51296819Y-95073695D01*
X50820628Y-95549885D02*
X50820628Y-95883219D01*
X50296819Y-96026076D02*
X50296819Y-95549885D01*
X51296819Y-95549885D01*
X51296819Y-96026076D01*
D11*
X170408600Y-91262200D02*
X170408600Y-97967800D01*
X170510200Y-97967800D02*
X173939200Y-97967800D01*
X173939200Y-97967800D02*
X173939200Y-91262200D01*
X173939200Y-91262200D02*
X170408600Y-91262200D01*
D10*
X171661200Y-95810247D02*
X171613580Y-95905485D01*
X171613580Y-96048342D01*
X171661200Y-96191200D01*
X171756438Y-96286438D01*
X171851676Y-96334057D01*
X172042152Y-96381676D01*
X172185009Y-96381676D01*
X172375485Y-96334057D01*
X172470723Y-96286438D01*
X172565961Y-96191200D01*
X172613580Y-96048342D01*
X172613580Y-95953104D01*
X172565961Y-95810247D01*
X172518342Y-95762628D01*
X172185009Y-95762628D01*
X172185009Y-95953104D01*
X172613580Y-94857866D02*
X172613580Y-95334057D01*
X171613580Y-95334057D01*
X171613580Y-94524533D02*
X172423104Y-94524533D01*
X172518342Y-94476914D01*
X172565961Y-94429295D01*
X172613580Y-94334057D01*
X172613580Y-94143580D01*
X172565961Y-94048342D01*
X172518342Y-94000723D01*
X172423104Y-93953104D01*
X171613580Y-93953104D01*
X172089771Y-93476914D02*
X172089771Y-93143580D01*
X172613580Y-93000723D02*
X172613580Y-93476914D01*
X171613580Y-93476914D01*
X171613580Y-93000723D01*
D11*
X114655600Y-32207200D02*
X107950000Y-32207200D01*
X114655600Y-35737800D02*
X114655600Y-32207200D01*
X107950000Y-35737800D02*
X114655600Y-35737800D01*
X107950000Y-32308800D02*
X107950000Y-35737800D01*
D10*
X110107552Y-33459800D02*
X110012314Y-33412180D01*
X109869457Y-33412180D01*
X109726600Y-33459800D01*
X109631361Y-33555038D01*
X109583742Y-33650276D01*
X109536123Y-33840752D01*
X109536123Y-33983609D01*
X109583742Y-34174085D01*
X109631361Y-34269323D01*
X109726600Y-34364561D01*
X109869457Y-34412180D01*
X109964695Y-34412180D01*
X110107552Y-34364561D01*
X110155171Y-34316942D01*
X110155171Y-33983609D01*
X109964695Y-33983609D01*
X111059933Y-34412180D02*
X110583742Y-34412180D01*
X110583742Y-33412180D01*
X111393266Y-33412180D02*
X111393266Y-34221704D01*
X111440885Y-34316942D01*
X111488504Y-34364561D01*
X111583742Y-34412180D01*
X111774219Y-34412180D01*
X111869457Y-34364561D01*
X111917076Y-34316942D01*
X111964695Y-34221704D01*
X111964695Y-33412180D01*
X112440885Y-33888371D02*
X112774219Y-33888371D01*
X112917076Y-34412180D02*
X112440885Y-34412180D01*
X112440885Y-33412180D01*
X112917076Y-33412180D01*
D12*
%TO.C,J1*%
X107500000Y-175400000D02*
X115500000Y-175400000D01*
X115500000Y-175400000D02*
X115500000Y-161400000D01*
X115500000Y-161400000D02*
X107500000Y-161400000D01*
X107500000Y-161400000D02*
X107500000Y-175400000D01*
D13*
%TO.C,L1*%
X112021536Y-157332000D02*
X113225664Y-157332000D01*
X112021536Y-159152000D02*
X113225664Y-159152000D01*
%TO.C,J1*%
D11*
X110872380Y-167733333D02*
X111586666Y-167733333D01*
X111729523Y-167780952D01*
X111824761Y-167876190D01*
X111872380Y-168019047D01*
X111872380Y-168114285D01*
X111872380Y-166733333D02*
X111872380Y-167304761D01*
X111872380Y-167019047D02*
X110872380Y-167019047D01*
X111015238Y-167114285D01*
X111110476Y-167209523D01*
X111158095Y-167304761D01*
%TO.C,L1*%
X112433333Y-156752380D02*
X111957142Y-156752380D01*
X111957142Y-155752380D01*
X113290476Y-156752380D02*
X112719047Y-156752380D01*
X113004761Y-156752380D02*
X113004761Y-155752380D01*
X112909523Y-155895238D01*
X112814285Y-155990476D01*
X112719047Y-156038095D01*
%TD*%
M02*
