M48
; DRILL file {KiCad (5.1.5-0-10_14)} date 2021 June 08, Tuesday 11:11:09
; FORMAT={-:-/ absolute / metric / decimal}
; #@! TF.CreationDate,2021-06-08T11:11:09+02:00
; #@! TF.GenerationSoftware,Kicad,Pcbnew,(5.1.5-0-10_14)
; #@! TF.FileFunction,Plated,1,2,PTH
FMAT,2
METRIC
T1C0.300
T2C0.500
T3C0.600
T4C0.800
T5C0.850
T6C1.000
T7C1.300
T8C3.000
T9C3.200
%
G90
G05
T1
X96.0Y100.5
X96.5Y76.75
X96.75Y83.5
X96.75Y82.25
X96.94Y86.955
X96.94Y85.955
X96.94Y84.955
X97.0Y71.0
X97.0Y69.0
X97.0Y67.0
X97.0Y65.0
X97.0Y63.0
X97.0Y61.0
X97.0Y59.0
X97.0Y51.5
X97.94Y86.955
X97.94Y85.955
X97.94Y84.955
X98.25Y76.75
X98.75Y82.25
X98.94Y86.955
X98.94Y85.955
X98.94Y84.955
X99.94Y88.955
X99.94Y87.955
X99.94Y86.955
X99.94Y86.0
X99.94Y84.955
X100.0Y76.75
X100.0Y71.0
X100.0Y69.0
X100.0Y67.0
X100.0Y65.0
X100.0Y63.0
X100.0Y61.0
X100.145Y90.4
X100.94Y83.955
X100.94Y82.955
X101.3Y86.7
X101.44Y92.955
X101.44Y91.955
X101.5Y81.75
X101.75Y76.75
X101.84Y91.055
X101.94Y82.955
X102.0Y51.5
X102.2Y86.663
X102.44Y92.955
X102.44Y91.955
X102.5Y59.5
X103.0Y99.5
X103.031Y86.684
X103.5Y81.0
X104.44Y89.755
X104.44Y88.955
X104.44Y87.955
X104.5Y57.5
X105.25Y74.25
X105.25Y73.0
X105.4Y85.5
X105.5Y59.5
X105.805Y92.595
X106.44Y88.955
X106.5Y74.25
X106.5Y73.0
X107.5Y67.5
X107.5Y54.5
X107.5Y52.0
X107.75Y79.5
X107.75Y78.25
X107.75Y77.0
X107.75Y75.75
X107.75Y74.25
X107.75Y73.0
X108.5Y66.0
X108.5Y60.5
X108.54Y87.3
X109.0Y83.5
X109.25Y81.0
X109.25Y78.75
X109.25Y77.5
X109.25Y76.25
X110.0Y66.0
X110.5Y104.0
X110.75Y82.0
X111.0Y88.0
X111.0Y58.5
X111.0Y56.75
X111.5Y85.5
X112.0Y66.0
X112.25Y81.75
X112.5Y83.25
X112.75Y72.5
X113.5Y66.0
X113.5Y66.0
X114.0Y63.75
X114.854Y90.336
X115.0Y87.3
X115.0Y66.0
X115.0Y58.0
X115.3Y91.8
X115.3Y91.0
X115.5Y72.5
X116.0Y84.5
X116.5Y62.0
X116.75Y76.5
X116.75Y75.25
X116.75Y74.25
X116.75Y73.0
X117.0Y66.5
X117.0Y60.5
X118.5Y94.25
X118.5Y87.0
X118.5Y67.5
X118.5Y54.5
X118.5Y53.0
X118.5Y51.0
X118.976Y95.729
X119.0Y98.25
X119.1Y97.049
X119.5Y80.5
X120.0Y85.4
X120.5Y104.0
X120.576Y95.385
X120.718Y94.185
X120.733Y96.302
X120.737Y93.385
X121.0Y97.25
X121.0Y62.0
X121.5Y100.0
X121.5Y84.0
X121.53Y96.23
X121.75Y98.75
X122.5Y83.0
X123.0Y104.0
X123.0Y91.5
X123.0Y79.0
X123.0Y58.5
X124.5Y104.0
X124.5Y86.0
X124.695Y82.695
X125.0Y102.0
X125.0Y80.15
X125.0Y68.0
X125.0Y64.5
X125.5Y61.5
X125.949Y82.714
X126.339Y83.413
X126.5Y71.5
X126.6Y86.8
X127.044Y83.79
X127.387Y84.513
X127.8Y102.6
X127.83Y96.641
X127.9Y101.0
X127.959Y85.856
X128.5Y74.5
X128.5Y64.5
X128.604Y84.8
X128.715Y85.595
X128.8Y82.4
X129.0Y91.5
X129.0Y70.0
X129.0Y59.0
X129.067Y97.869
X129.381Y82.995
X129.964Y83.563
X130.5Y66.5
X130.909Y86.5
X131.8Y102.6
X132.5Y61.0
X133.5Y66.5
X133.6Y87.4
X134.0Y64.5
X134.2Y86.207
X134.2Y92.175
X134.504Y85.007
X134.7Y100.8
X135.0Y98.5
X135.115Y82.865
X135.204Y84.509
X136.033Y84.5
X136.206Y86.643
X136.5Y102.5
X136.5Y59.0
X137.0Y62.0
X137.35Y66.35
X138.0Y100.5
X138.239Y95.739
X138.4Y94.6
X138.5Y103.5
X138.5Y97.5
X138.51Y72.59
X140.0Y59.0
X140.582Y95.418
X141.25Y94.0
X141.25Y91.129
X141.4Y95.0
X142.043Y93.894
X142.5Y65.0
X143.0Y62.0
X144.0Y62.5
X144.0Y59.0
X144.0Y55.0
X144.0Y53.0
X144.2Y61.0
X144.4Y64.6
X145.25Y90.75
X145.5Y104.0
X145.5Y97.0
X146.1Y58.5
X146.2Y61.0
X146.6Y64.8
X147.0Y85.5
X147.5Y104.0
X147.8Y73.4
X148.0Y99.0
X148.0Y71.0
X148.0Y67.0
X148.498Y89.8
X149.0Y94.25
X149.0Y53.0
X149.4Y83.6
X150.0Y101.0
X150.0Y96.75
X150.0Y86.0
X150.0Y65.0
X150.0Y63.5
X150.0Y62.0
X150.0Y60.0
X150.0Y58.5
X150.25Y94.65
X150.6Y83.6
X151.0Y104.0
X151.25Y96.75
X151.25Y98.25
X151.5Y85.0
X151.5Y67.0
X152.4Y79.2
X152.75Y100.0
X153.0Y94.5
X153.0Y93.5
X153.0Y74.0
X153.0Y53.0
X153.5Y104.0
X153.5Y102.75
X153.5Y90.5
X153.75Y96.75
X154.0Y93.5
X154.0Y79.0
X155.0Y85.5
X155.0Y84.5
X156.0Y104.0
X156.0Y79.5
X156.0Y70.5
X156.25Y97.0
X156.5Y100.0
X156.8Y58.0
X157.5Y80.5
X157.75Y94.0
X158.0Y87.5
X158.0Y82.5
X158.0Y54.0
X158.0Y52.5
X158.5Y88.5
X159.0Y97.0
X159.2Y99.0
X159.5Y94.0
X159.5Y93.0
X159.5Y80.5
X160.0Y90.5
X160.25Y101.0
X160.5Y88.5
X160.5Y69.5
X160.56Y52.496
X161.0Y74.5
X161.5Y101.5
X161.5Y98.5
X161.5Y90.5
X161.5Y80.5
X162.0Y69.5
X162.0Y51.5
X162.5Y75.5
X162.5Y59.0
X162.5Y57.0
X162.6Y90.8
X162.6Y55.0
X163.0Y76.5
X163.0Y74.0
X163.0Y64.0
X163.5Y80.5
X163.5Y51.5
X164.0Y89.0
X164.5Y73.0
X164.5Y53.5
X165.0Y59.5
X165.0Y57.5
X165.0Y56.0
X165.0Y55.0
X165.5Y91.0
X165.5Y73.0
X165.5Y60.0
X165.5Y51.5
X166.0Y100.5
X166.0Y98.5
X166.0Y95.5
X166.0Y94.5
X166.4Y102.4
X167.0Y60.0
X167.5Y73.0
X168.0Y77.5
X168.5Y85.975
X168.5Y83.0
X168.5Y60.5
X169.0Y72.5
X169.0Y71.0
X169.0Y56.5
X169.5Y100.0
X169.5Y88.5
X170.0Y97.5
X170.0Y81.0
X170.0Y61.0
X170.5Y70.5
X171.5Y102.5
X171.5Y73.5
X171.5Y61.0
X172.0Y70.5
X172.5Y103.9
X173.5Y70.5
X173.5Y61.0
X173.5Y51.0
X174.5Y71.5
X174.5Y61.5
X174.5Y60.5
X175.0Y83.0
X175.0Y80.0
X175.0Y72.5
X175.4Y95.8
X175.5Y60.0
X176.0Y85.0
X176.0Y72.5
X176.5Y75.5
X177.0Y72.5
X177.0Y60.0
X177.0Y51.0
X177.754Y69.5
X177.754Y62.5
X178.0Y72.5
X178.0Y60.0
X178.6Y103.3
X178.8Y98.0
X178.9Y92.7
X178.9Y90.0
X178.9Y87.0
X178.9Y83.5
X178.9Y79.5
X178.9Y76.0
X178.9Y72.5
X179.0Y60.0
X179.0Y57.5
X101.5Y89.0
X103.0Y89.0
T2
X172.6Y100.0
X173.303Y101.697
X173.303Y98.303
X175.0Y102.4
X175.0Y97.6
X176.697Y101.697
X176.697Y98.303
X177.4Y100.0
X97.6Y55.0
X98.303Y56.697
X98.303Y53.303
X100.0Y57.4
X100.0Y52.6
X101.697Y56.697
X101.697Y53.303
X102.4Y55.0
X172.6Y55.0
X173.303Y56.697
X173.303Y53.303
X175.0Y57.4
X175.0Y52.6
X176.697Y56.697
X176.697Y53.303
X177.4Y55.0
T3
X101.75Y101.75
X104.25Y74.5
X105.5Y83.0
X107.5Y63.75
X109.75Y101.0
X119.8Y90.2
X121.2Y90.6
X136.0Y88.5
X137.641Y68.391
X139.5Y85.5
X140.25Y82.75
X141.25Y68.0
X142.75Y77.25
X143.25Y94.5
X143.4Y103.6
X147.75Y94.0
X147.75Y77.5
X167.5Y51.5
X178.75Y94.5
T4
X122.5Y76.486
X122.5Y54.485
X124.5Y76.486
X124.5Y54.485
X126.5Y76.486
X126.5Y54.485
X128.5Y76.486
X128.5Y54.485
X130.5Y76.486
X130.5Y54.485
X132.5Y76.486
X132.5Y54.485
X134.5Y76.486
X134.5Y54.485
X136.5Y76.486
X136.5Y54.485
X138.5Y76.486
X138.5Y54.485
X140.5Y76.486
X140.5Y54.485
T5
X110.1Y54.162
X115.1Y54.162
T6
X116.5Y70.75
X121.85Y70.0
X170.5Y103.5
X155.46Y91.5
X158.0Y91.5
X156.0Y77.0
X158.54Y77.0
X161.08Y77.0
X105.5Y102.5
X108.04Y102.5
X110.71Y68.25
X113.25Y68.25
X97.25Y96.79
X97.25Y94.25
T7
X170.3Y85.65
X170.3Y83.5
X172.25Y86.275
X172.25Y82.875
T8
X171.75Y90.825
X171.75Y78.325
T9
X175.0Y100.0
X100.0Y55.0
X175.0Y55.0
T3
G00X109.1Y51.112
M15
G01X109.1Y51.812
M16
G05
G00X116.1Y51.812
M15
G01X116.1Y51.112
M16
G05
T0
M30
