M48
; DRILL file {KiCad (6.0.0-0)} date 2022 January 03, Monday 00:26:08
; FORMAT={-:-/ absolute / metric / decimal}
; #@! TF.CreationDate,2022-01-03T00:26:08+01:00
; #@! TF.GenerationSoftware,Kicad,Pcbnew,(6.0.0-0)
; #@! TF.FileFunction,Plated,1,2,PTH
FMAT,2
METRIC
; #@! TA.AperFunction,Plated,PTH,ViaDrill
T1C0.300
; #@! TA.AperFunction,Plated,PTH,ComponentDrill
T2C0.300
; #@! TA.AperFunction,Plated,PTH,ViaDrill
T3C0.400
; #@! TA.AperFunction,Plated,PTH,ViaDrill
T4C0.600
; #@! TA.AperFunction,Plated,PTH,ComponentDrill
T5C0.800
; #@! TA.AperFunction,Plated,PTH,ComponentDrill
T6C1.000
; #@! TA.AperFunction,Plated,PTH,ComponentDrill
T7C1.300
; #@! TA.AperFunction,Plated,PTH,ComponentDrill
T8C2.500
%
G90
G05
T1
X159.25Y-98.5
X159.5Y-93.25
X159.75Y-103.0
X160.3Y-98.05
X161.0Y-93.25
X162.35Y-103.75
X163.0Y-93.5
X166.125Y-85.0
X167.0Y-81.75
X167.0Y-94.25
X168.325Y-86.7
X168.325Y-87.4
X168.325Y-90.3
X168.35Y-89.35
X168.975Y-81.9
X170.75Y-89.0
X170.75Y-90.25
X171.35Y-82.025
X171.45Y-72.9
X172.25Y-84.5
X173.0Y-108.5
X173.1Y-71.5
X173.25Y-82.75
X173.25Y-85.5
X173.75Y-110.75
X174.75Y-78.5
X174.75Y-81.0
X175.35Y-94.15
X175.8Y-93.45
X177.15Y-104.6
X177.575Y-91.975
X177.75Y-90.0
X178.75Y-80.0
X179.0Y-78.75
X179.0Y-93.9
X179.1Y-88.15
X179.849Y-89.425
X180.15Y-93.0
X180.299Y-88.205
X180.5Y-104.45
X180.55Y-103.25
X181.144Y-88.27
X181.917Y-86.819
X181.966Y-87.67
X182.225Y-92.177
X182.256Y-90.556
X182.256Y-91.286
X182.653Y-86.225
X183.2Y-94.0
X184.062Y-83.111
X185.119Y-79.986
X185.541Y-85.485
X186.162Y-84.98
X186.5Y-95.25
X187.219Y-81.986
X188.07Y-94.552
X189.219Y-85.486
X190.119Y-85.571
X190.4Y-97.975
X191.5Y-96.25
X191.925Y-89.0
X191.951Y-95.549
X192.929Y-94.763
X192.951Y-85.727
X193.172Y-90.175
X193.597Y-80.78
X194.46Y-86.767
X195.82Y-86.26
X196.25Y-95.25
X196.35Y-101.3
X196.371Y-82.9
X196.841Y-85.605
X197.429Y-90.524
X197.525Y-92.7
X197.575Y-100.225
X198.5Y-76.2
X200.25Y-77.5
X200.75Y-100.75
X200.8Y-89.3
X200.85Y-88.4
X201.698Y-100.012
X202.175Y-89.075
X202.524Y-99.998
X202.626Y-102.919
X202.709Y-80.154
X203.0Y-89.1
X203.8Y-88.825
X204.475Y-102.425
X204.625Y-103.7
X205.069Y-120.536
X205.426Y-118.436
X205.5Y-112.5
X206.45Y-105.125
X210.925Y-77.25
X213.275Y-78.225
X214.063Y-78.092
T2
X212.869Y-80.286
X214.369Y-80.286
T3
X167.0Y-91.0
X168.0Y-97.25
X168.0Y-101.0
X168.0Y-105.75
X168.25Y-102.5
X176.95Y-100.25
X179.05Y-100.2
X180.05Y-95.7
X183.15Y-103.0
X190.9Y-100.6
X192.13Y-100.619
T4
X159.6Y-82.8
X159.6Y-88.0
X159.825Y-108.125
X160.0Y-106.0
X160.0Y-120.0
X161.35Y-97.325
X163.0Y-108.0
X163.0Y-111.0
X163.2Y-82.8
X163.2Y-88.0
X164.0Y-121.0
X168.0Y-121.0
X172.0Y-121.0
X172.5Y-76.75
X173.785Y-93.715
X174.075Y-95.875
X176.0Y-121.0
X176.05Y-97.35
X179.45Y-117.05
X180.0Y-121.0
X181.8Y-82.0
X183.0Y-74.75
X184.325Y-72.875
X185.0Y-121.0
X187.25Y-100.525
X187.375Y-107.175
X189.0Y-121.0
X189.9Y-102.4
X190.5Y-108.075
X190.725Y-76.825
X193.825Y-107.8
X195.35Y-118.75
X197.0Y-121.0
X197.947Y-84.422
X199.0Y-102.0
X199.9Y-87.5
X200.0Y-112.0
X200.0Y-117.0
X200.2Y-102.6
X205.5Y-93.0
X207.0Y-121.0
X208.0Y-111.0
X210.425Y-81.45
X211.0Y-118.0
X212.0Y-121.0
X216.759Y-81.626
X217.0Y-121.0
X217.5Y-105.25
X221.0Y-119.0
X221.275Y-103.45
X222.125Y-90.825
T5
X199.82Y-85.971
X199.82Y-107.971
X201.82Y-85.971
X201.82Y-107.971
X203.819Y-85.971
X203.819Y-107.971
X205.819Y-85.971
X205.819Y-107.971
X207.819Y-85.971
X207.819Y-107.971
X209.819Y-85.971
X209.819Y-107.971
X211.819Y-85.971
X211.819Y-107.971
X213.819Y-85.971
X213.819Y-107.971
X215.819Y-85.971
X215.819Y-107.971
X217.819Y-85.971
X217.819Y-107.971
T7
X165.119Y-115.286
X165.744Y-113.336
X167.894Y-113.336
X168.519Y-115.286
X180.219Y-115.236
X180.844Y-113.286
X182.994Y-113.286
X183.619Y-115.236
X213.119Y-115.286
X213.744Y-113.336
X214.819Y-116.286
X215.894Y-113.336
X216.519Y-115.286
T8
X177.552Y-71.526
T6
G00X160.57Y-113.786
M15
G01X160.57Y-115.786
M16
G05
G00X173.07Y-113.786
M15
G01X173.07Y-115.786
M16
G05
G00X175.669Y-113.736
M15
G01X175.669Y-115.736
M16
G05
G00X188.169Y-113.736
M15
G01X188.169Y-115.736
M16
G05
G00X208.569Y-113.786
M15
G01X208.569Y-115.786
M16
G05
G00X221.069Y-113.786
M15
G01X221.069Y-115.786
M16
G05
T0
M30
