%TF.GenerationSoftware,KiCad,Pcbnew,(6.0.0-0)*%
%TF.CreationDate,2022-01-03T00:26:05+01:00*%
%TF.ProjectId,Nestbox,4e657374-626f-4782-9e6b-696361645f70,rev?*%
%TF.SameCoordinates,Original*%
%TF.FileFunction,Soldermask,Top*%
%TF.FilePolarity,Negative*%
%FSLAX46Y46*%
G04 Gerber Fmt 4.6, Leading zero omitted, Abs format (unit mm)*
G04 Created by KiCad (PCBNEW (6.0.0-0)) date 2022-01-03 00:26:05*
%MOMM*%
%LPD*%
G01*
G04 APERTURE LIST*
G04 Aperture macros list*
%AMRoundRect*
0 Rectangle with rounded corners*
0 $1 Rounding radius*
0 $2 $3 $4 $5 $6 $7 $8 $9 X,Y pos of 4 corners*
0 Add a 4 corners polygon primitive as box body*
4,1,4,$2,$3,$4,$5,$6,$7,$8,$9,$2,$3,0*
0 Add four circle primitives for the rounded corners*
1,1,$1+$1,$2,$3*
1,1,$1+$1,$4,$5*
1,1,$1+$1,$6,$7*
1,1,$1+$1,$8,$9*
0 Add four rect primitives between the rounded corners*
20,1,$1+$1,$2,$3,$4,$5,0*
20,1,$1+$1,$4,$5,$6,$7,0*
20,1,$1+$1,$6,$7,$8,$9,0*
20,1,$1+$1,$8,$9,$2,$3,0*%
G04 Aperture macros list end*
%ADD10C,0.010000*%
%ADD11RoundRect,0.200000X-0.350000X-0.600000X0.350000X-0.600000X0.350000X0.600000X-0.350000X0.600000X0*%
%ADD12RoundRect,0.200000X-2.250000X-2.145000X2.250000X-2.145000X2.250000X2.145000X-2.250000X2.145000X0*%
%ADD13RoundRect,0.200000X-0.775000X-0.800000X0.775000X-0.800000X0.775000X0.800000X-0.775000X0.800000X0*%
%ADD14RoundRect,0.200000X-0.775000X-0.600000X0.775000X-0.600000X0.775000X0.600000X-0.775000X0.600000X0*%
%ADD15RoundRect,0.443750X0.243750X0.456250X-0.243750X0.456250X-0.243750X-0.456250X0.243750X-0.456250X0*%
%ADD16RoundRect,0.418750X0.218750X0.256250X-0.218750X0.256250X-0.218750X-0.256250X0.218750X-0.256250X0*%
%ADD17RoundRect,0.418750X-0.256250X0.218750X-0.256250X-0.218750X0.256250X-0.218750X0.256250X0.218750X0*%
%ADD18RoundRect,0.418750X-0.218750X-0.256250X0.218750X-0.256250X0.218750X0.256250X-0.218750X0.256250X0*%
%ADD19RoundRect,0.443750X-0.456250X0.243750X-0.456250X-0.243750X0.456250X-0.243750X0.456250X0.243750X0*%
%ADD20RoundRect,0.443750X-0.243750X-0.456250X0.243750X-0.456250X0.243750X0.456250X-0.243750X0.456250X0*%
%ADD21RoundRect,0.200000X-0.225000X-0.200000X0.225000X-0.200000X0.225000X0.200000X-0.225000X0.200000X0*%
%ADD22RoundRect,0.200000X-0.225000X-0.250000X0.225000X-0.250000X0.225000X0.250000X-0.225000X0.250000X0*%
%ADD23RoundRect,0.350000X0.150000X-0.825000X0.150000X0.825000X-0.150000X0.825000X-0.150000X-0.825000X0*%
%ADD24C,5.400000*%
%ADD25RoundRect,0.418750X0.256250X-0.218750X0.256250X0.218750X-0.256250X0.218750X-0.256250X-0.218750X0*%
%ADD26RoundRect,0.200000X-0.400000X0.450000X-0.400000X-0.450000X0.400000X-0.450000X0.400000X0.450000X0*%
%ADD27C,2.100000*%
%ADD28O,2.400000X4.400000*%
%ADD29RoundRect,0.450000X0.375000X0.850000X-0.375000X0.850000X-0.375000X-0.850000X0.375000X-0.850000X0*%
%ADD30RoundRect,0.200000X-0.125000X0.300000X-0.125000X-0.300000X0.125000X-0.300000X0.125000X0.300000X0*%
%ADD31C,1.004800*%
%ADD32RoundRect,0.200000X-1.000000X0.450000X-1.000000X-0.450000X1.000000X-0.450000X1.000000X0.450000X0*%
%ADD33C,1.009600*%
%ADD34RoundRect,0.200000X-0.325000X0.530000X-0.325000X-0.530000X0.325000X-0.530000X0.325000X0.530000X0*%
%ADD35RoundRect,0.443750X0.456250X-0.243750X0.456250X0.243750X-0.456250X0.243750X-0.456250X-0.243750X0*%
%ADD36RoundRect,0.200000X-0.750000X-0.225000X0.750000X-0.225000X0.750000X0.225000X-0.750000X0.225000X0*%
%ADD37RoundRect,0.200000X0.450000X0.400000X-0.450000X0.400000X-0.450000X-0.400000X0.450000X-0.400000X0*%
%ADD38C,1.900000*%
%ADD39RoundRect,0.200000X-0.600000X-0.200000X0.600000X-0.200000X0.600000X0.200000X-0.600000X0.200000X0*%
%ADD40RoundRect,0.200000X-2.950000X1.225000X-2.950000X-1.225000X2.950000X-1.225000X2.950000X1.225000X0*%
%ADD41RoundRect,0.262500X0.337500X0.062500X-0.337500X0.062500X-0.337500X-0.062500X0.337500X-0.062500X0*%
%ADD42RoundRect,0.262500X0.062500X0.337500X-0.062500X0.337500X-0.062500X-0.337500X0.062500X-0.337500X0*%
%ADD43RoundRect,0.450000X2.400000X2.400000X-2.400000X2.400000X-2.400000X-2.400000X2.400000X-2.400000X0*%
%ADD44RoundRect,0.327000X-0.127000X0.381000X-0.127000X-0.381000X0.127000X-0.381000X0.127000X0.381000X0*%
%ADD45RoundRect,0.200000X-2.150000X1.700000X-2.150000X-1.700000X2.150000X-1.700000X2.150000X1.700000X0*%
%ADD46RoundRect,0.200000X0.400000X-0.450000X0.400000X0.450000X-0.400000X0.450000X-0.400000X-0.450000X0*%
%ADD47RoundRect,0.200000X-0.900000X0.500000X-0.900000X-0.500000X0.900000X-0.500000X0.900000X0.500000X0*%
%ADD48RoundRect,0.347500X-0.172500X0.147500X-0.172500X-0.147500X0.172500X-0.147500X0.172500X0.147500X0*%
%ADD49RoundRect,0.200000X0.450000X-1.000000X0.450000X1.000000X-0.450000X1.000000X-0.450000X-1.000000X0*%
%ADD50RoundRect,0.200000X-0.450000X1.000000X-0.450000X-1.000000X0.450000X-1.000000X0.450000X1.000000X0*%
%ADD51RoundRect,0.200000X0.450000X-0.500000X0.450000X0.500000X-0.450000X0.500000X-0.450000X-0.500000X0*%
%ADD52RoundRect,0.400000X-0.200000X-0.275000X0.200000X-0.275000X0.200000X0.275000X-0.200000X0.275000X0*%
%ADD53RoundRect,0.200000X-2.540000X0.890000X-2.540000X-0.890000X2.540000X-0.890000X2.540000X0.890000X0*%
%ADD54RoundRect,0.200000X-1.980000X1.980000X-1.980000X-1.980000X1.980000X-1.980000X1.980000X1.980000X0*%
%ADD55RoundRect,0.400000X0.200000X0.275000X-0.200000X0.275000X-0.200000X-0.275000X0.200000X-0.275000X0*%
%ADD56RoundRect,0.400000X-0.275000X0.200000X-0.275000X-0.200000X0.275000X-0.200000X0.275000X0.200000X0*%
%ADD57RoundRect,0.400000X0.275000X-0.200000X0.275000X0.200000X-0.275000X0.200000X-0.275000X-0.200000X0*%
%ADD58RoundRect,0.347500X-0.147500X-0.172500X0.147500X-0.172500X0.147500X0.172500X-0.147500X0.172500X0*%
%ADD59RoundRect,0.425000X0.250000X-0.225000X0.250000X0.225000X-0.250000X0.225000X-0.250000X-0.225000X0*%
%ADD60C,1.390600*%
G04 APERTURE END LIST*
D10*
X203590000Y-103462500D02*
X203590000Y-102922500D01*
X203590000Y-102922500D02*
X203920000Y-102922500D01*
X203920000Y-102922500D02*
X203920000Y-103132500D01*
X203920000Y-103132500D02*
X204130000Y-103132500D01*
X204130000Y-103132500D02*
X204130000Y-103462500D01*
X204130000Y-103462500D02*
X203590000Y-103462500D01*
G36*
X203920000Y-103132500D02*
G01*
X204130000Y-103132500D01*
X204130000Y-103462500D01*
X203590000Y-103462500D01*
X203590000Y-102922500D01*
X203920000Y-102922500D01*
X203920000Y-103132500D01*
G37*
X203920000Y-103132500D02*
X204130000Y-103132500D01*
X204130000Y-103462500D01*
X203590000Y-103462500D01*
X203590000Y-102922500D01*
X203920000Y-102922500D01*
X203920000Y-103132500D01*
X203510000Y-103462500D02*
X203510000Y-102922500D01*
X203510000Y-102922500D02*
X203180000Y-102922500D01*
X203180000Y-102922500D02*
X203180000Y-103132500D01*
X203180000Y-103132500D02*
X202970000Y-103132500D01*
X202970000Y-103132500D02*
X202970000Y-103462500D01*
X202970000Y-103462500D02*
X203510000Y-103462500D01*
G36*
X203510000Y-103462500D02*
G01*
X202970000Y-103462500D01*
X202970000Y-103132500D01*
X203180000Y-103132500D01*
X203180000Y-102922500D01*
X203510000Y-102922500D01*
X203510000Y-103462500D01*
G37*
X203510000Y-103462500D02*
X202970000Y-103462500D01*
X202970000Y-103132500D01*
X203180000Y-103132500D01*
X203180000Y-102922500D01*
X203510000Y-102922500D01*
X203510000Y-103462500D01*
X203510000Y-103542500D02*
X203510000Y-104082500D01*
X203510000Y-104082500D02*
X203180000Y-104082500D01*
X203180000Y-104082500D02*
X203180000Y-103872500D01*
X203180000Y-103872500D02*
X202970000Y-103872500D01*
X202970000Y-103872500D02*
X202970000Y-103542500D01*
X202970000Y-103542500D02*
X203510000Y-103542500D01*
G36*
X203510000Y-104082500D02*
G01*
X203180000Y-104082500D01*
X203180000Y-103872500D01*
X202970000Y-103872500D01*
X202970000Y-103542500D01*
X203510000Y-103542500D01*
X203510000Y-104082500D01*
G37*
X203510000Y-104082500D02*
X203180000Y-104082500D01*
X203180000Y-103872500D01*
X202970000Y-103872500D01*
X202970000Y-103542500D01*
X203510000Y-103542500D01*
X203510000Y-104082500D01*
X203590000Y-103542500D02*
X203590000Y-104082500D01*
X203590000Y-104082500D02*
X203920000Y-104082500D01*
X203920000Y-104082500D02*
X203920000Y-103872500D01*
X203920000Y-103872500D02*
X204130000Y-103872500D01*
X204130000Y-103872500D02*
X204130000Y-103542500D01*
X204130000Y-103542500D02*
X203590000Y-103542500D01*
G36*
X204130000Y-103872500D02*
G01*
X203920000Y-103872500D01*
X203920000Y-104082500D01*
X203590000Y-104082500D01*
X203590000Y-103542500D01*
X204130000Y-103542500D01*
X204130000Y-103872500D01*
G37*
X204130000Y-103872500D02*
X203920000Y-103872500D01*
X203920000Y-104082500D01*
X203590000Y-104082500D01*
X203590000Y-103542500D01*
X204130000Y-103542500D01*
X204130000Y-103872500D01*
D11*
X216749500Y-99785621D03*
X219299500Y-99785621D03*
X218019500Y-99785621D03*
X220569500Y-99785621D03*
D12*
X218659500Y-96385621D03*
D11*
X219299500Y-93985621D03*
D13*
X219749500Y-95635621D03*
D11*
X216749500Y-93985621D03*
D13*
X217569500Y-95635621D03*
D14*
X217569500Y-97635621D03*
X219749500Y-97635621D03*
D11*
X220569500Y-93985621D03*
X218019500Y-93985621D03*
D15*
X161319500Y-99785621D03*
X159444500Y-99785621D03*
D16*
X175607000Y-100535621D03*
X174032000Y-100535621D03*
D17*
X162819500Y-94498121D03*
X162819500Y-96073121D03*
X164319500Y-94498121D03*
X164319500Y-96073121D03*
D18*
X168032000Y-96035621D03*
X169607000Y-96035621D03*
D16*
X172607000Y-96035621D03*
X171032000Y-96035621D03*
X161319500Y-101785621D03*
X159744500Y-101785621D03*
D15*
X176007000Y-98785621D03*
X174132000Y-98785621D03*
D19*
X171319500Y-109348121D03*
X171319500Y-111223121D03*
D16*
X172894500Y-107285621D03*
X171319500Y-107285621D03*
X168819500Y-111285621D03*
X167244500Y-111285621D03*
D20*
X167382000Y-109285621D03*
X169257000Y-109285621D03*
D15*
X169319500Y-107285621D03*
X167444500Y-107285621D03*
D21*
X203244500Y-120085621D03*
X203244500Y-120885621D03*
D22*
X204394500Y-120485621D03*
D23*
X163009500Y-104260621D03*
X164279500Y-104260621D03*
X165549500Y-104260621D03*
X166819500Y-104260621D03*
X168089500Y-104260621D03*
X169359500Y-104260621D03*
X170629500Y-104260621D03*
X171899500Y-104260621D03*
X171899500Y-99310621D03*
X170629500Y-99310621D03*
X169359500Y-99310621D03*
X168089500Y-99310621D03*
X166819500Y-99310621D03*
X165549500Y-99310621D03*
X164279500Y-99310621D03*
X163009500Y-99310621D03*
D24*
X177552422Y-71526000D03*
D25*
X166033879Y-96073121D03*
X166033879Y-94498121D03*
D18*
X166994500Y-83035621D03*
X168569500Y-83035621D03*
D25*
X165319500Y-111073121D03*
X165319500Y-109498121D03*
D16*
X174687500Y-72900000D03*
X173112500Y-72900000D03*
D26*
X161269500Y-94285621D03*
X159369500Y-94285621D03*
X160319500Y-96285621D03*
D27*
X213119500Y-115285621D03*
X213744500Y-113335621D03*
X216519500Y-115285621D03*
X215894500Y-113335621D03*
X214819500Y-116285621D03*
D28*
X208569500Y-114785621D03*
X221069500Y-114785621D03*
D15*
X220797000Y-101685621D03*
X218922000Y-101685621D03*
D29*
X214644500Y-76285621D03*
X212494500Y-76285621D03*
D19*
X216809500Y-78543121D03*
X216809500Y-80418121D03*
D30*
X214869500Y-79285621D03*
X214369500Y-79285621D03*
X213869500Y-79285621D03*
X213369500Y-79285621D03*
X212869500Y-79285621D03*
X212369500Y-79285621D03*
X212369500Y-81285621D03*
X212869500Y-81285621D03*
X213369500Y-81285621D03*
X213869500Y-81285621D03*
X214369500Y-81285621D03*
X214869500Y-81285621D03*
D31*
X214369500Y-80285621D03*
D32*
X213619500Y-80285621D03*
D33*
X212869500Y-80285621D03*
D19*
X210319500Y-78348121D03*
X210319500Y-80223121D03*
D21*
X203244500Y-118085621D03*
X203244500Y-118885621D03*
D22*
X204394500Y-118485621D03*
D34*
X193269500Y-102950000D03*
X192319500Y-102950000D03*
X191369500Y-102950000D03*
X191369500Y-105150000D03*
X193269500Y-105150000D03*
D16*
X192787500Y-101300000D03*
X191212500Y-101300000D03*
X192787500Y-107000000D03*
X191212500Y-107000000D03*
D18*
X181032000Y-107785621D03*
X182607000Y-107785621D03*
D17*
X174800000Y-109312500D03*
X174800000Y-110887500D03*
D25*
X189000000Y-103073121D03*
X189000000Y-101498121D03*
D17*
X187500000Y-101498121D03*
X187500000Y-103073121D03*
D35*
X189319500Y-106473121D03*
X189319500Y-104598121D03*
D25*
X187500000Y-106073121D03*
X187500000Y-104498121D03*
D17*
X180819500Y-109498121D03*
X180819500Y-111073121D03*
X182819500Y-109498121D03*
X182819500Y-111073121D03*
X184819500Y-109498121D03*
X184819500Y-111073121D03*
X178819500Y-109498121D03*
X178819500Y-111073121D03*
D16*
X176357000Y-102285621D03*
X174782000Y-102285621D03*
D18*
X174782000Y-103785621D03*
X176357000Y-103785621D03*
D36*
X179050000Y-101510621D03*
X179050000Y-102160621D03*
X179050000Y-102810621D03*
X179050000Y-103460621D03*
X179050000Y-104110621D03*
X179050000Y-104760621D03*
X179050000Y-105410621D03*
X179050000Y-106060621D03*
X184950000Y-106060621D03*
X184950000Y-105410621D03*
X184950000Y-104760621D03*
X184950000Y-104110621D03*
X184950000Y-103460621D03*
X184950000Y-102810621D03*
X184950000Y-102160621D03*
X184950000Y-101510621D03*
D27*
X180219500Y-115235621D03*
X180844500Y-113285621D03*
X183619500Y-115235621D03*
X182994500Y-113285621D03*
D28*
X175669500Y-114735621D03*
X188169500Y-114735621D03*
D37*
X192819500Y-117735621D03*
X192819500Y-115835621D03*
X190819500Y-116785621D03*
X192819500Y-121235621D03*
X192819500Y-119335621D03*
X190819500Y-120285621D03*
X192800000Y-114150000D03*
X192800000Y-112250000D03*
X190800000Y-113200000D03*
X192800000Y-110550000D03*
X192800000Y-108650000D03*
X190800000Y-109600000D03*
D25*
X194419500Y-117573121D03*
X194419500Y-115998121D03*
D17*
X194419500Y-119498121D03*
X194419500Y-121073121D03*
D25*
X194400000Y-113987500D03*
X194400000Y-112412500D03*
D17*
X194400000Y-109012500D03*
X194400000Y-110587500D03*
D38*
X199819500Y-107971121D03*
X201819500Y-107971121D03*
X203819500Y-107971121D03*
X205819500Y-107971121D03*
X207819500Y-107971121D03*
X209819500Y-107971121D03*
X211819500Y-107971121D03*
X213819500Y-107971121D03*
X215819500Y-107971121D03*
X217819500Y-107971121D03*
X217819500Y-85971121D03*
X215819500Y-85971121D03*
X213819500Y-85971121D03*
X211819500Y-85971121D03*
X209819500Y-85971121D03*
X207819500Y-85971121D03*
X205819500Y-85971121D03*
X203819500Y-85971121D03*
X201819500Y-85971121D03*
X199819500Y-85971121D03*
D15*
X201112500Y-103725000D03*
X199237500Y-103725000D03*
D18*
X211387500Y-89450000D03*
X212962500Y-89450000D03*
D16*
X215937500Y-89450000D03*
X214362500Y-89450000D03*
D17*
X209675000Y-102537500D03*
X209675000Y-104112500D03*
D16*
X217107000Y-103785621D03*
X215532000Y-103785621D03*
D25*
X206475000Y-104087500D03*
X206475000Y-102512500D03*
D17*
X208100000Y-102537500D03*
X208100000Y-104112500D03*
D39*
X166969500Y-85563121D03*
X166969500Y-86198121D03*
X166969500Y-86833121D03*
X166969500Y-87468121D03*
X166969500Y-88103121D03*
X166969500Y-88738121D03*
X166969500Y-89373121D03*
X166969500Y-90008121D03*
X172169500Y-90008121D03*
X172169500Y-89373121D03*
X172169500Y-88738121D03*
X172169500Y-88103121D03*
X172169500Y-87468121D03*
X172169500Y-86833121D03*
X172169500Y-86198121D03*
X172169500Y-85563121D03*
D40*
X162319500Y-85260621D03*
X162319500Y-90810621D03*
D20*
X170344500Y-83285621D03*
X172219500Y-83285621D03*
D16*
X177569500Y-87785621D03*
X175994500Y-87785621D03*
D17*
X174532000Y-86248121D03*
X174532000Y-87823121D03*
D16*
X169607000Y-93535621D03*
X168032000Y-93535621D03*
D20*
X174632000Y-92035621D03*
X176507000Y-92035621D03*
X174632000Y-90035621D03*
X176507000Y-90035621D03*
D18*
X171032000Y-93535621D03*
X172607000Y-93535621D03*
D16*
X177569500Y-86285621D03*
X175994500Y-86285621D03*
D18*
X168032000Y-92035621D03*
X169607000Y-92035621D03*
D16*
X172607000Y-92035621D03*
X171032000Y-92035621D03*
D18*
X183362000Y-83900621D03*
X184937000Y-83900621D03*
D17*
X181750000Y-78212500D03*
X181750000Y-79787500D03*
D41*
X190869500Y-92670621D03*
X190869500Y-92170621D03*
X190869500Y-91670621D03*
X190869500Y-91170621D03*
X190869500Y-90670621D03*
X190869500Y-90170621D03*
X190869500Y-89670621D03*
X190869500Y-89170621D03*
X190869500Y-88670621D03*
X190869500Y-88170621D03*
X190869500Y-87670621D03*
X190869500Y-87170621D03*
D42*
X190169500Y-86470621D03*
X189669500Y-86470621D03*
X189169500Y-86470621D03*
X188669500Y-86470621D03*
X188169500Y-86470621D03*
X187669500Y-86470621D03*
X187169500Y-86470621D03*
X186669500Y-86470621D03*
X186169500Y-86470621D03*
X185669500Y-86470621D03*
X185169500Y-86470621D03*
X184669500Y-86470621D03*
D41*
X183969500Y-87170621D03*
X183969500Y-87670621D03*
X183969500Y-88170621D03*
X183969500Y-88670621D03*
X183969500Y-89170621D03*
X183969500Y-89670621D03*
X183969500Y-90170621D03*
X183969500Y-90670621D03*
X183969500Y-91170621D03*
X183969500Y-91670621D03*
X183969500Y-92170621D03*
X183969500Y-92670621D03*
D42*
X184669500Y-93370621D03*
X185169500Y-93370621D03*
X185669500Y-93370621D03*
X186169500Y-93370621D03*
X186669500Y-93370621D03*
X187169500Y-93370621D03*
X187669500Y-93370621D03*
X188169500Y-93370621D03*
X188669500Y-93370621D03*
X189169500Y-93370621D03*
X189669500Y-93370621D03*
X190169500Y-93370621D03*
D43*
X187419500Y-89920621D03*
D44*
X189624500Y-72785621D03*
X188354500Y-72785621D03*
X187084500Y-72785621D03*
X185814500Y-72785621D03*
X185814500Y-80785621D03*
X187084500Y-80785621D03*
X188354500Y-80785621D03*
X189624500Y-80785621D03*
D45*
X187719500Y-76785621D03*
D46*
X194869500Y-89620621D03*
X194869500Y-88220621D03*
X193769500Y-88220621D03*
X193769500Y-89620621D03*
D47*
X194319500Y-91670621D03*
X194319500Y-94170621D03*
D48*
X194675000Y-81540000D03*
X194675000Y-82510000D03*
D18*
X196632000Y-89720621D03*
X198207000Y-89720621D03*
X196632000Y-87920621D03*
X198207000Y-87920621D03*
D16*
X198207000Y-93720621D03*
X196632000Y-93720621D03*
X198207000Y-91720621D03*
X196632000Y-91720621D03*
X181787500Y-93750000D03*
X180212500Y-93750000D03*
D17*
X190319500Y-95598121D03*
X190319500Y-97173121D03*
D18*
X193732000Y-95785621D03*
X195307000Y-95785621D03*
D16*
X195907000Y-85285621D03*
X194332000Y-85285621D03*
X195907000Y-83785621D03*
X194332000Y-83785621D03*
X193607000Y-79785621D03*
X192032000Y-79785621D03*
D25*
X172500000Y-79787500D03*
X172500000Y-78212500D03*
X204900000Y-81650000D03*
X204900000Y-80075000D03*
D17*
X203150000Y-80075000D03*
X203150000Y-81650000D03*
D25*
X183250000Y-80787500D03*
X183250000Y-79212500D03*
X192119500Y-74473121D03*
X192119500Y-72898121D03*
D17*
X184319500Y-96998121D03*
X184319500Y-98573121D03*
D25*
X183250000Y-77787500D03*
X183250000Y-76212500D03*
D17*
X182819500Y-96998121D03*
X182819500Y-98573121D03*
X181309500Y-97008121D03*
X181309500Y-98583121D03*
X179819500Y-97008121D03*
X179819500Y-98583121D03*
D49*
X199829500Y-106365621D03*
X201829500Y-109565621D03*
X203829500Y-106365621D03*
X205829500Y-109565621D03*
X207829500Y-106365621D03*
X209829500Y-109565621D03*
X211829500Y-106365621D03*
X213829500Y-109565621D03*
X215829500Y-106365621D03*
X217829500Y-109565621D03*
D50*
X217819500Y-87575621D03*
X215819500Y-84375621D03*
X213819500Y-87575621D03*
X211819500Y-84375621D03*
X209819500Y-87575621D03*
X207819500Y-84375621D03*
X205819500Y-87575621D03*
X203819500Y-84375621D03*
X201819500Y-87575621D03*
X199819500Y-84375621D03*
D37*
X194019500Y-78035621D03*
X194019500Y-76135621D03*
X192019500Y-77085621D03*
D17*
X195819500Y-76198121D03*
X195819500Y-77773121D03*
D27*
X165119500Y-115285621D03*
X165744500Y-113335621D03*
X168519500Y-115285621D03*
X167894500Y-113335621D03*
D28*
X173069500Y-114785621D03*
X160569500Y-114785621D03*
D51*
X176344500Y-107690621D03*
X176344500Y-105540621D03*
X174794500Y-105540621D03*
X174794500Y-107690621D03*
D52*
X195725000Y-79300000D03*
X197375000Y-79300000D03*
D53*
X205575000Y-100525000D03*
X205575000Y-91125000D03*
D54*
X205575000Y-95825000D03*
D55*
X198975000Y-96600000D03*
X197325000Y-96600000D03*
D56*
X160800000Y-109375000D03*
X160800000Y-111025000D03*
D57*
X176350000Y-110925000D03*
X176350000Y-109275000D03*
D58*
X220569500Y-92035621D03*
X221539500Y-92035621D03*
D56*
X205500000Y-113675000D03*
X205500000Y-115325000D03*
D59*
X197300000Y-77775000D03*
X197300000Y-76225000D03*
D60*
X176850000Y-82390000D03*
X175834000Y-77310000D03*
X177866000Y-77310000D03*
M02*
