%TF.GenerationSoftware,KiCad,Pcbnew,(6.0.0-0)*%
%TF.CreationDate,2022-01-03T00:26:05+01:00*%
%TF.ProjectId,Nestbox,4e657374-626f-4782-9e6b-696361645f70,rev?*%
%TF.SameCoordinates,Original*%
%TF.FileFunction,Legend,Top*%
%TF.FilePolarity,Positive*%
%FSLAX46Y46*%
G04 Gerber Fmt 4.6, Leading zero omitted, Abs format (unit mm)*
G04 Created by KiCad (PCBNEW (6.0.0-0)) date 2022-01-03 00:26:05*
%MOMM*%
%LPD*%
G01*
G04 APERTURE LIST*
%ADD10C,0.300000*%
%ADD11C,0.500000*%
%ADD12C,0.250000*%
%ADD13C,0.120000*%
%ADD14C,0.127000*%
%ADD15C,0.150000*%
%ADD16C,0.200000*%
%ADD17C,0.100000*%
%ADD18C,1.500000*%
G04 APERTURE END LIST*
D10*
X211788785Y-47545621D02*
X211717357Y-47617049D01*
X211645928Y-47545621D01*
X211717357Y-47474192D01*
X211788785Y-47545621D01*
X211645928Y-47545621D01*
D11*
X211775300Y-47513706D02*
X211870538Y-47608944D01*
X211775300Y-47704182D01*
X211680061Y-47608944D01*
X211775300Y-47513706D01*
X211775300Y-47704182D01*
D12*
X186547619Y-104809523D02*
X185547619Y-105142857D01*
X186547619Y-105476190D01*
X185833333Y-105761904D02*
X185833333Y-106238095D01*
X185547619Y-105666666D02*
X186547619Y-106000000D01*
X185547619Y-106333333D01*
X185833333Y-106619047D02*
X185833333Y-107095238D01*
X185547619Y-106523809D02*
X186547619Y-106857142D01*
X185547619Y-107190476D01*
D10*
X169567000Y-92816335D02*
X169638428Y-92887763D01*
X169567000Y-92959192D01*
X169495571Y-92887763D01*
X169567000Y-92816335D01*
X169567000Y-92959192D01*
D11*
X156285714Y-115750000D02*
X156190476Y-115845238D01*
X156095238Y-115750000D01*
X156190476Y-115654761D01*
X156285714Y-115750000D01*
X156095238Y-115750000D01*
D12*
X210986166Y-34038001D02*
X211319500Y-35038001D01*
X211652833Y-34038001D01*
X212557595Y-34942763D02*
X212509976Y-34990382D01*
X212367119Y-35038001D01*
X212271880Y-35038001D01*
X212129023Y-34990382D01*
X212033785Y-34895144D01*
X211986166Y-34799906D01*
X211938547Y-34609430D01*
X211938547Y-34466573D01*
X211986166Y-34276097D01*
X212033785Y-34180859D01*
X212129023Y-34085621D01*
X212271880Y-34038001D01*
X212367119Y-34038001D01*
X212509976Y-34085621D01*
X212557595Y-34133240D01*
X213557595Y-34942763D02*
X213509976Y-34990382D01*
X213367119Y-35038001D01*
X213271880Y-35038001D01*
X213129023Y-34990382D01*
X213033785Y-34895144D01*
X212986166Y-34799906D01*
X212938547Y-34609430D01*
X212938547Y-34466573D01*
X212986166Y-34276097D01*
X213033785Y-34180859D01*
X213129023Y-34085621D01*
X213271880Y-34038001D01*
X213367119Y-34038001D01*
X213509976Y-34085621D01*
X213557595Y-34133240D01*
X217271880Y-33014192D02*
X218271880Y-32680859D01*
X217271880Y-32347525D01*
X218271880Y-32014192D02*
X217271880Y-32014192D01*
X217986166Y-31680859D01*
X217271880Y-31347525D01*
X218271880Y-31347525D01*
X217748071Y-30871335D02*
X217748071Y-30538001D01*
X218271880Y-30395144D02*
X218271880Y-30871335D01*
X217271880Y-30871335D01*
X217271880Y-30395144D01*
X218271880Y-29966573D02*
X217271880Y-29966573D01*
X217986166Y-29633240D01*
X217271880Y-29299906D01*
X218271880Y-29299906D01*
D13*
X221459500Y-94285621D02*
X221459500Y-99485621D01*
X215859500Y-100485621D02*
X216259500Y-100485621D01*
X215859500Y-93885621D02*
X215859500Y-100485621D01*
X160640578Y-100495621D02*
X160123422Y-100495621D01*
X160640578Y-99075621D02*
X160123422Y-99075621D01*
X174982279Y-101045621D02*
X174656721Y-101045621D01*
X174982279Y-100025621D02*
X174656721Y-100025621D01*
X163329500Y-95122842D02*
X163329500Y-95448400D01*
X162309500Y-95122842D02*
X162309500Y-95448400D01*
X163809500Y-95122842D02*
X163809500Y-95448400D01*
X164829500Y-95122842D02*
X164829500Y-95448400D01*
X168656721Y-95525621D02*
X168982279Y-95525621D01*
X168656721Y-96545621D02*
X168982279Y-96545621D01*
X171982279Y-96545621D02*
X171656721Y-96545621D01*
X171982279Y-95525621D02*
X171656721Y-95525621D01*
X160694779Y-101275621D02*
X160369221Y-101275621D01*
X160694779Y-102295621D02*
X160369221Y-102295621D01*
X175328078Y-99495621D02*
X174810922Y-99495621D01*
X175328078Y-98075621D02*
X174810922Y-98075621D01*
X170609500Y-110027043D02*
X170609500Y-110544199D01*
X172029500Y-110027043D02*
X172029500Y-110544199D01*
X172269779Y-106775621D02*
X171944221Y-106775621D01*
X172269779Y-107795621D02*
X171944221Y-107795621D01*
X168194779Y-111795621D02*
X167869221Y-111795621D01*
X168194779Y-110775621D02*
X167869221Y-110775621D01*
X168060922Y-108575621D02*
X168578078Y-108575621D01*
X168060922Y-109995621D02*
X168578078Y-109995621D01*
X168640578Y-107995621D02*
X168123422Y-107995621D01*
X168640578Y-106575621D02*
X168123422Y-106575621D01*
X204119500Y-121185621D02*
X203519500Y-121185621D01*
X204319500Y-119785621D02*
X203119500Y-119785621D01*
X203119500Y-119785621D02*
X203119500Y-119785621D01*
X172514500Y-101785621D02*
X172514500Y-99835621D01*
X172514500Y-101785621D02*
X172514500Y-103735621D01*
X162394500Y-101785621D02*
X162394500Y-99835621D01*
X162394500Y-101785621D02*
X162394500Y-105235621D01*
X165523879Y-95448400D02*
X165523879Y-95122842D01*
X166543879Y-95448400D02*
X166543879Y-95122842D01*
X167619221Y-83545621D02*
X167944779Y-83545621D01*
X167619221Y-82525621D02*
X167944779Y-82525621D01*
X165829500Y-110448400D02*
X165829500Y-110122842D01*
X164809500Y-110448400D02*
X164809500Y-110122842D01*
X174062779Y-73410000D02*
X173737221Y-73410000D01*
X174062779Y-72390000D02*
X173737221Y-72390000D01*
X161899500Y-96045621D02*
X161899500Y-93885621D01*
X158739500Y-96045621D02*
X159669500Y-96045621D01*
X158739500Y-96045621D02*
X158739500Y-94585621D01*
X161899500Y-96045621D02*
X160969500Y-96045621D01*
D10*
X208569500Y-117285621D02*
X208569500Y-122985621D01*
X221069500Y-117285621D02*
X221069500Y-122985621D01*
X208569500Y-122985621D02*
X221069500Y-122985621D01*
D13*
X220118078Y-102395621D02*
X219600922Y-102395621D01*
X220118078Y-100975621D02*
X219600922Y-100975621D01*
X213830752Y-77395621D02*
X213308248Y-77395621D01*
X213830752Y-75175621D02*
X213308248Y-75175621D01*
X216099500Y-79222043D02*
X216099500Y-79739199D01*
X217519500Y-79222043D02*
X217519500Y-79739199D01*
D14*
X211849500Y-81535621D02*
X212079500Y-81535621D01*
X215139500Y-81535621D02*
X215369500Y-81535621D01*
X215369500Y-79285621D02*
X215369500Y-79035621D01*
X212099500Y-79035621D02*
X211869500Y-79035621D01*
X215369500Y-79185621D02*
X215119500Y-79185621D01*
X215369500Y-79035621D02*
X215139500Y-79035621D01*
X211849500Y-79035621D02*
X211849500Y-81535621D01*
X215369500Y-81535621D02*
X215369500Y-79285621D01*
X215369500Y-79085621D02*
X215119500Y-79085621D01*
X215369500Y-79285621D02*
X215119500Y-79285621D01*
X215119500Y-79035621D02*
X215119500Y-79285621D01*
D13*
X209609500Y-79027043D02*
X209609500Y-79544199D01*
X211029500Y-79027043D02*
X211029500Y-79544199D01*
X204119500Y-119185621D02*
X203519500Y-119185621D01*
X203119500Y-117785621D02*
X203119500Y-117785621D01*
X204319500Y-117785621D02*
X203119500Y-117785621D01*
X190709500Y-103150000D02*
X190709500Y-104950000D01*
X193929500Y-104950000D02*
X193929500Y-102500000D01*
X192162779Y-101810000D02*
X191837221Y-101810000D01*
X192162779Y-100790000D02*
X191837221Y-100790000D01*
X192162779Y-107510000D02*
X191837221Y-107510000D01*
X192162779Y-106490000D02*
X191837221Y-106490000D01*
X181656721Y-107275621D02*
X181982279Y-107275621D01*
X181656721Y-108295621D02*
X181982279Y-108295621D01*
X175310000Y-109937221D02*
X175310000Y-110262779D01*
X174290000Y-109937221D02*
X174290000Y-110262779D01*
X189510000Y-102448400D02*
X189510000Y-102122842D01*
X188490000Y-102448400D02*
X188490000Y-102122842D01*
X188010000Y-102122842D02*
X188010000Y-102448400D01*
X186990000Y-102122842D02*
X186990000Y-102448400D01*
X190029500Y-105794199D02*
X190029500Y-105277043D01*
X188609500Y-105794199D02*
X188609500Y-105277043D01*
X186990000Y-105448400D02*
X186990000Y-105122842D01*
X188010000Y-105448400D02*
X188010000Y-105122842D01*
X181329500Y-110122842D02*
X181329500Y-110448400D01*
X180309500Y-110122842D02*
X180309500Y-110448400D01*
X182309500Y-110122842D02*
X182309500Y-110448400D01*
X183329500Y-110122842D02*
X183329500Y-110448400D01*
X185329500Y-110122842D02*
X185329500Y-110448400D01*
X184309500Y-110122842D02*
X184309500Y-110448400D01*
X178309500Y-110122842D02*
X178309500Y-110448400D01*
X179329500Y-110122842D02*
X179329500Y-110448400D01*
X175732279Y-102795621D02*
X175406721Y-102795621D01*
X175732279Y-101775621D02*
X175406721Y-101775621D01*
X175406721Y-104295621D02*
X175732279Y-104295621D01*
X175406721Y-103275621D02*
X175732279Y-103275621D01*
D15*
X179800000Y-106510621D02*
X184200000Y-106510621D01*
X178225000Y-100985621D02*
X184200000Y-100985621D01*
D10*
X175669500Y-117235621D02*
X175669500Y-122935621D01*
X175669500Y-122935621D02*
X188169500Y-122935621D01*
X188169500Y-117235621D02*
X188169500Y-122935621D01*
D13*
X191059500Y-118365621D02*
X193219500Y-118365621D01*
X191059500Y-115205621D02*
X192519500Y-115205621D01*
X191059500Y-115205621D02*
X191059500Y-116135621D01*
X191059500Y-118365621D02*
X191059500Y-117435621D01*
X191059500Y-121865621D02*
X191059500Y-120935621D01*
X191059500Y-121865621D02*
X193219500Y-121865621D01*
X191059500Y-118705621D02*
X192519500Y-118705621D01*
X191059500Y-118705621D02*
X191059500Y-119635621D01*
X191040000Y-111620000D02*
X192500000Y-111620000D01*
X191040000Y-114780000D02*
X193200000Y-114780000D01*
X191040000Y-114780000D02*
X191040000Y-113850000D01*
X191040000Y-111620000D02*
X191040000Y-112550000D01*
X191040000Y-111180000D02*
X191040000Y-110250000D01*
X191040000Y-108020000D02*
X192500000Y-108020000D01*
X191040000Y-111180000D02*
X193200000Y-111180000D01*
X191040000Y-108020000D02*
X191040000Y-108950000D01*
X194929500Y-116948400D02*
X194929500Y-116622842D01*
X193909500Y-116948400D02*
X193909500Y-116622842D01*
X194929500Y-120122842D02*
X194929500Y-120448400D01*
X193909500Y-120122842D02*
X193909500Y-120448400D01*
X193890000Y-113362779D02*
X193890000Y-113037221D01*
X194910000Y-113362779D02*
X194910000Y-113037221D01*
X194910000Y-109637221D02*
X194910000Y-109962779D01*
X193890000Y-109637221D02*
X193890000Y-109962779D01*
D15*
X198803500Y-84984121D02*
X191501000Y-92985121D01*
X198819500Y-106971121D02*
X198819500Y-108971121D01*
X198819500Y-86971121D02*
X198819500Y-84971121D01*
X218819500Y-108971121D02*
X198819500Y-108971121D01*
X191505300Y-100971121D02*
X191505300Y-92971121D01*
X218819500Y-108971121D02*
X218819500Y-84971121D01*
X218819500Y-84971121D02*
X198819500Y-84971121D01*
X218819500Y-86971121D02*
X198819500Y-86971121D01*
X218819500Y-106971121D02*
X198819500Y-106971121D01*
X191488300Y-100948021D02*
X198803500Y-108974421D01*
D16*
X203300000Y-104752500D02*
G75*
G03*
X203300000Y-104752500I-100000J0D01*
G01*
D13*
X200433578Y-103015000D02*
X199916422Y-103015000D01*
X200433578Y-104435000D02*
X199916422Y-104435000D01*
X212012221Y-88940000D02*
X212337779Y-88940000D01*
X212012221Y-89960000D02*
X212337779Y-89960000D01*
X215312779Y-88940000D02*
X214987221Y-88940000D01*
X215312779Y-89960000D02*
X214987221Y-89960000D01*
X210185000Y-103162221D02*
X210185000Y-103487779D01*
X209165000Y-103162221D02*
X209165000Y-103487779D01*
X216482279Y-103275621D02*
X216156721Y-103275621D01*
X216482279Y-104295621D02*
X216156721Y-104295621D01*
X206985000Y-103462779D02*
X206985000Y-103137221D01*
X205965000Y-103462779D02*
X205965000Y-103137221D01*
X207590000Y-103162221D02*
X207590000Y-103487779D01*
X208610000Y-103162221D02*
X208610000Y-103487779D01*
D15*
X167569500Y-90460621D02*
X171569500Y-90460621D01*
X166294500Y-85060621D02*
X171569500Y-85060621D01*
D13*
X165419500Y-84035621D02*
X165419500Y-92035621D01*
X159219500Y-84035621D02*
X159219500Y-92035621D01*
X171023422Y-83995621D02*
X171540578Y-83995621D01*
X171023422Y-82575621D02*
X171540578Y-82575621D01*
X176944779Y-88295621D02*
X176619221Y-88295621D01*
X176944779Y-87275621D02*
X176619221Y-87275621D01*
X174022000Y-86872842D02*
X174022000Y-87198400D01*
X175042000Y-86872842D02*
X175042000Y-87198400D01*
X168982279Y-93025621D02*
X168656721Y-93025621D01*
X168982279Y-94045621D02*
X168656721Y-94045621D01*
X175310922Y-91325621D02*
X175828078Y-91325621D01*
X175310922Y-92745621D02*
X175828078Y-92745621D01*
X175310922Y-89325621D02*
X175828078Y-89325621D01*
X175310922Y-90745621D02*
X175828078Y-90745621D01*
X171656721Y-93025621D02*
X171982279Y-93025621D01*
X171656721Y-94045621D02*
X171982279Y-94045621D01*
X176944779Y-86795621D02*
X176619221Y-86795621D01*
X176944779Y-85775621D02*
X176619221Y-85775621D01*
X168656721Y-92545621D02*
X168982279Y-92545621D01*
X168656721Y-91525621D02*
X168982279Y-91525621D01*
X171982279Y-92545621D02*
X171656721Y-92545621D01*
X171982279Y-91525621D02*
X171656721Y-91525621D01*
X183986721Y-83390621D02*
X184312279Y-83390621D01*
X183986721Y-84410621D02*
X184312279Y-84410621D01*
X181015000Y-77515000D02*
X181015000Y-79800000D01*
X182485000Y-79800000D02*
X182485000Y-77515000D01*
X182485000Y-77515000D02*
X181015000Y-77515000D01*
X183809500Y-93530621D02*
X183809500Y-93055621D01*
X184284500Y-93530621D02*
X183809500Y-93530621D01*
X183809500Y-86310621D02*
X183809500Y-86785621D01*
X191029500Y-86310621D02*
X191029500Y-86785621D01*
X184284500Y-86310621D02*
X183809500Y-86310621D01*
X190554500Y-86310621D02*
X191029500Y-86310621D01*
X190554500Y-93530621D02*
X191029500Y-93530621D01*
X190919500Y-76785621D02*
X190919500Y-80785621D01*
X184519500Y-72785621D02*
X184519500Y-80785621D01*
X193169500Y-90270621D02*
X195469500Y-90270621D01*
X195469500Y-90270621D02*
X195469500Y-87570621D01*
X193369500Y-92370621D02*
X193369500Y-93470621D01*
X195219500Y-90970621D02*
X193419500Y-90970621D01*
X195269500Y-92370621D02*
X195269500Y-93470621D01*
X197256721Y-90230621D02*
X197582279Y-90230621D01*
X197256721Y-89210621D02*
X197582279Y-89210621D01*
X197256721Y-87410621D02*
X197582279Y-87410621D01*
X197256721Y-88430621D02*
X197582279Y-88430621D01*
X197582279Y-94230621D02*
X197256721Y-94230621D01*
X197582279Y-93210621D02*
X197256721Y-93210621D01*
X197582279Y-92230621D02*
X197256721Y-92230621D01*
X197582279Y-91210621D02*
X197256721Y-91210621D01*
X181162779Y-93240000D02*
X180837221Y-93240000D01*
X181162779Y-94260000D02*
X180837221Y-94260000D01*
X189809500Y-96222842D02*
X189809500Y-96548400D01*
X190829500Y-96222842D02*
X190829500Y-96548400D01*
X194356721Y-95275621D02*
X194682279Y-95275621D01*
X194356721Y-96295621D02*
X194682279Y-96295621D01*
X195282279Y-84775621D02*
X194956721Y-84775621D01*
X195282279Y-85795621D02*
X194956721Y-85795621D01*
X195282279Y-84295621D02*
X194956721Y-84295621D01*
X195282279Y-83275621D02*
X194956721Y-83275621D01*
X192982279Y-80295621D02*
X192656721Y-80295621D01*
X192982279Y-79275621D02*
X192656721Y-79275621D01*
X171990000Y-79162779D02*
X171990000Y-78837221D01*
X173010000Y-79162779D02*
X173010000Y-78837221D01*
X204390000Y-81025279D02*
X204390000Y-80699721D01*
X205410000Y-81025279D02*
X205410000Y-80699721D01*
X202640000Y-80699721D02*
X202640000Y-81025279D01*
X203660000Y-80699721D02*
X203660000Y-81025279D01*
X182740000Y-80162779D02*
X182740000Y-79837221D01*
X183760000Y-80162779D02*
X183760000Y-79837221D01*
X191609500Y-73848400D02*
X191609500Y-73522842D01*
X192629500Y-73848400D02*
X192629500Y-73522842D01*
X184829500Y-97622842D02*
X184829500Y-97948400D01*
X183809500Y-97622842D02*
X183809500Y-97948400D01*
X182740000Y-77162779D02*
X182740000Y-76837221D01*
X183760000Y-77162779D02*
X183760000Y-76837221D01*
X183329500Y-97622842D02*
X183329500Y-97948400D01*
X182309500Y-97622842D02*
X182309500Y-97948400D01*
X181819500Y-97632842D02*
X181819500Y-97958400D01*
X180799500Y-97632842D02*
X180799500Y-97958400D01*
X180329500Y-97632842D02*
X180329500Y-97958400D01*
X179309500Y-97632842D02*
X179309500Y-97958400D01*
X198469500Y-106655621D02*
X199119500Y-106655621D01*
X198469500Y-109275621D02*
X201119500Y-109275621D01*
X206539500Y-109275621D02*
X209119500Y-109275621D01*
X204539500Y-106655621D02*
X207119500Y-106655621D01*
X208539500Y-106655621D02*
X211119500Y-106655621D01*
X210539500Y-109275621D02*
X213119500Y-109275621D01*
X216539500Y-106655621D02*
X219189500Y-106655621D01*
X219189500Y-109275621D02*
X219189500Y-106655621D01*
X212539500Y-106655621D02*
X215119500Y-106655621D01*
X198469500Y-109275621D02*
X198469500Y-106655621D01*
X202539500Y-109275621D02*
X205119500Y-109275621D01*
X200539500Y-106655621D02*
X203119500Y-106655621D01*
X214539500Y-109275621D02*
X217119500Y-109275621D01*
X199119500Y-106655621D02*
X199119500Y-105425621D01*
X218539500Y-109275621D02*
X219189500Y-109275621D01*
X213109500Y-87285621D02*
X210529500Y-87285621D01*
X198459500Y-84665621D02*
X198459500Y-87285621D01*
X219179500Y-84665621D02*
X219179500Y-87285621D01*
X199109500Y-84665621D02*
X198459500Y-84665621D01*
X219179500Y-84665621D02*
X216529500Y-84665621D01*
X209109500Y-87285621D02*
X206529500Y-87285621D01*
X217109500Y-87285621D02*
X214529500Y-87285621D01*
X211109500Y-84665621D02*
X208529500Y-84665621D01*
X215109500Y-84665621D02*
X212529500Y-84665621D01*
X203109500Y-84665621D02*
X200529500Y-84665621D01*
X218529500Y-87285621D02*
X218529500Y-88515621D01*
X201109500Y-87285621D02*
X198459500Y-87285621D01*
X207109500Y-84665621D02*
X204529500Y-84665621D01*
X219179500Y-87285621D02*
X218529500Y-87285621D01*
X205109500Y-87285621D02*
X202529500Y-87285621D01*
X192259500Y-75505621D02*
X192259500Y-76435621D01*
X192259500Y-75505621D02*
X193719500Y-75505621D01*
X192259500Y-78665621D02*
X192259500Y-77735621D01*
X192259500Y-78665621D02*
X194419500Y-78665621D01*
X195309500Y-76822842D02*
X195309500Y-77148400D01*
X196329500Y-76822842D02*
X196329500Y-77148400D01*
D10*
X173069500Y-117285621D02*
X173069500Y-122985621D01*
X160569500Y-122985621D02*
X173069500Y-122985621D01*
X160569500Y-117285621D02*
X160569500Y-122985621D01*
D13*
X174269500Y-104780621D02*
X176869500Y-104780621D01*
X177054500Y-108250621D02*
X177054500Y-108450621D01*
X177054500Y-108450621D02*
X174269500Y-108450621D01*
X196312742Y-78777500D02*
X196787258Y-78777500D01*
X196312742Y-79822500D02*
X196787258Y-79822500D01*
X209075000Y-92125000D02*
X203075000Y-92125000D01*
X201075000Y-97825000D02*
X203075000Y-99525000D01*
X201075000Y-93825000D02*
X201075000Y-97825000D01*
X209075000Y-99525000D02*
X203075000Y-99525000D01*
X201075000Y-93825000D02*
X203075000Y-92125000D01*
X209075000Y-93425000D02*
G75*
G03*
X209070415Y-98216383I4499997J-2400000D01*
G01*
X209075000Y-93425000D02*
G75*
G03*
X209065673Y-92119352I-400001J650000D01*
G01*
X209075000Y-99528723D02*
G75*
G03*
X209068972Y-98217627I-400000J653723D01*
G01*
X198387258Y-97122500D02*
X197912742Y-97122500D01*
X198387258Y-96077500D02*
X197912742Y-96077500D01*
X161322500Y-109962742D02*
X161322500Y-110437258D01*
X160277500Y-109962742D02*
X160277500Y-110437258D01*
X176872500Y-110337258D02*
X176872500Y-109862742D01*
X175827500Y-110337258D02*
X175827500Y-109862742D01*
D17*
X220014500Y-92035621D02*
G75*
G03*
X220014500Y-92035621I-50000J0D01*
G01*
D13*
X204977500Y-114262742D02*
X204977500Y-114737258D01*
X206022500Y-114262742D02*
X206022500Y-114737258D01*
X197810000Y-77140580D02*
X197810000Y-76859420D01*
X196790000Y-77140580D02*
X196790000Y-76859420D01*
D18*
X199819500Y-107971121D03*
X201819500Y-107971121D03*
X203819500Y-107971121D03*
X205819500Y-107971121D03*
X207819500Y-107971121D03*
X209819500Y-107971121D03*
X211819500Y-107971121D03*
X213819500Y-107971121D03*
X215819500Y-107971121D03*
X217819500Y-107971121D03*
X217819500Y-85971121D03*
X215819500Y-85971121D03*
X213819500Y-85971121D03*
X211819500Y-85971121D03*
X209819500Y-85971121D03*
X207819500Y-85971121D03*
X205819500Y-85971121D03*
X203819500Y-85971121D03*
X201819500Y-85971121D03*
X199819500Y-85971121D03*
M02*
