%TF.GenerationSoftware,KiCad,Pcbnew,(6.0.0-0)*%
%TF.CreationDate,2022-01-03T00:26:05+01:00*%
%TF.ProjectId,Nestbox,4e657374-626f-4782-9e6b-696361645f70,rev?*%
%TF.SameCoordinates,Original*%
%TF.FileFunction,Soldermask,Bot*%
%TF.FilePolarity,Negative*%
%FSLAX46Y46*%
G04 Gerber Fmt 4.6, Leading zero omitted, Abs format (unit mm)*
G04 Created by KiCad (PCBNEW (6.0.0-0)) date 2022-01-03 00:26:05*
%MOMM*%
%LPD*%
G01*
G04 APERTURE LIST*
%ADD10C,5.400000*%
%ADD11C,2.100000*%
%ADD12O,2.400000X4.400000*%
%ADD13C,1.004800*%
%ADD14C,1.009600*%
%ADD15C,1.900000*%
%ADD16C,1.390600*%
%ADD17C,1.187400*%
G04 APERTURE END LIST*
D10*
X177552422Y-71526000D03*
D11*
X213119500Y-115285621D03*
X213744500Y-113335621D03*
X216519500Y-115285621D03*
X215894500Y-113335621D03*
X214819500Y-116285621D03*
D12*
X208569500Y-114785621D03*
X221069500Y-114785621D03*
D13*
X214369500Y-80285621D03*
D14*
X212869500Y-80285621D03*
D11*
X180219500Y-115235621D03*
X180844500Y-113285621D03*
X183619500Y-115235621D03*
X182994500Y-113285621D03*
D12*
X175669500Y-114735621D03*
X188169500Y-114735621D03*
D15*
X199819500Y-107971121D03*
X201819500Y-107971121D03*
X203819500Y-107971121D03*
X205819500Y-107971121D03*
X207819500Y-107971121D03*
X209819500Y-107971121D03*
X211819500Y-107971121D03*
X213819500Y-107971121D03*
X215819500Y-107971121D03*
X217819500Y-107971121D03*
X217819500Y-85971121D03*
X215819500Y-85971121D03*
X213819500Y-85971121D03*
X211819500Y-85971121D03*
X209819500Y-85971121D03*
X207819500Y-85971121D03*
X205819500Y-85971121D03*
X203819500Y-85971121D03*
X201819500Y-85971121D03*
X199819500Y-85971121D03*
D11*
X165119500Y-115285621D03*
X165744500Y-113335621D03*
X168519500Y-115285621D03*
X167894500Y-113335621D03*
D12*
X173069500Y-114785621D03*
X160569500Y-114785621D03*
D16*
X176850000Y-82390000D03*
X175834000Y-77310000D03*
X177866000Y-77310000D03*
D17*
X176215000Y-81120000D03*
X177485000Y-81120000D03*
X176215000Y-79850000D03*
X177485000Y-79850000D03*
X176215000Y-78580000D03*
X177485000Y-78580000D03*
M02*
